<svg width="657" height="137" viewBox="0 0 657 137" fill="none" xmlns="http://www.w3.org/2000/svg">

                <path d="M627.9 17.6C627.9 25.63 634.38 32.1 642.42 32.1C650.46 32.1 656.94 25.63 656.94 17.6C656.94 9.56998 650.46 3.09998 642.42 3.09998C634.38 3.09998 627.9 9.56998 627.9 17.6ZM630.06 17.6C630.06 10.79 635.6 5.25998 642.42 5.25998C649.24 5.25998 654.78 10.79 654.78 17.6C654.78 24.41 649.24 29.94 642.42 29.94C635.6 29.94 630.06 24.41 630.06 17.6ZM638.71 16.05V10.72H642.15C644.24 10.72 645.12 10.79 645.86 11.39C646.4 11.86 646.74 12.54 646.74 13.28C646.74 15.98 644.04 16.05 642.82 16.05H638.71ZM636.07 26.23H638.64V18.14H641C643.5 18.14 645.05 18.48 645.46 21.04C645.73 22.73 645.8 24.82 646.54 26.23H649.51C648.77 24.68 648.63 23.73 648.23 21.17C647.83 19.01 647.22 18.07 645.39 17.33C647.55 16.93 649.31 15.58 649.31 13.15C649.31 11.46 648.43 9.84998 646.68 9.16998C645.53 8.76998 644.59 8.76998 642.56 8.76998H636.08V26.23H636.07Z"
                      fill="#0043BB"/>
                <path d="M513.64 92.46C520.85 123.9 543.04 136.84 572.81 136.84C609.79 136.84 630.13 117.61 630.13 93.57C630.13 66.57 602.76 59.91 589.63 57.14L563.74 51.59C557.08 50.11 547.28 47.89 547.28 38.46C547.28 28.29 557.82 23.11 572.06 23.11C586.48 23.11 596.47 30.88 598.32 45.49L626.61 39.2C623.11 20.9 610.72 0 572.08 0C544.53 0 518.27 13.68 518.27 38.46C518.27 67.68 539.72 72.3 560.43 76.55L580.96 80.8C592.98 83.39 600.19 86.72 600.19 96.33C600.19 105.02 589.83 113.71 573.75 113.71C555.44 113.71 543.05 104.65 543.05 85.97L513.64 92.46ZM476.68 133.7H506.27V3.14H476.68V133.7ZM391.43 133.7H422.13L474.46 3.14H445.43L406.78 102.26L368.13 3.14H339.1L391.43 133.7ZM264.92 57.7V26.26H295.61C306.33 26.26 314.1 30.88 314.1 41.05C314.1 52.88 306.15 57.69 295.42 57.69H264.92V57.7ZM235.88 133.7H264.92V80.81H299.49C309.48 80.81 313.91 88.58 313.91 98.56V116.68C313.91 121.12 314.28 128.88 318.9 133.69H350.34C344.05 127.03 342.76 120.01 342.76 113.16V92.83C342.76 77.3 334.62 71.19 322.42 67.87C329.45 66.57 342.76 58.99 342.76 37.36C342.76 13.51 321.13 3.15 298.19 3.15H235.87V133.7H235.88ZM146.73 76.37L164.3 29.22L181.87 76.37H146.73ZM94.96 133.7H125.47L138.41 98.57H190L203.13 133.7H233.64L180.94 3.14H147.65L94.96 133.7ZM0 90.43C0 122.79 23.67 136.84 50.3 136.84C79.33 136.84 98.93 122.6 98.93 95.05V3.14H69.35V95.04C69.35 107.43 61.58 113.72 49.93 113.72C39.02 113.72 28.85 107.06 28.85 84.32L0 90.43Z"
                      fill="#0043BB"/>

            <defs>
                <clipPath id="clip0">
                    <rect width="656.94" height="136.84" fill="white"/>
                </clipPath>
            </defs>
        </svg>